<svg width="16" height="16" viewBox="0 0 16 16" fill="none" xmlns="http://www.w3.org/2000/svg">
<path d="M13.6866 6.71429C13.7059 4.45849 11.7846 2.39052 9.40381 2.10456C9.35646 2.09894 9.30488 2.09039 9.25027 2.08135C9.13241 2.06182 9.01052 2.04175 8.88754 2.04175C8.39959 2.04175 8.26916 2.38451 8.23482 2.58893C8.20143 2.78769 8.23328 2.95459 8.32933 3.08523C8.49092 3.30495 8.77524 3.34396 9.00361 3.37521C9.07055 3.38446 9.1337 3.39305 9.18657 3.40493C11.3256 3.88289 12.0459 4.63434 12.3979 6.75519C12.4064 6.80701 12.4103 6.87087 12.4144 6.93859C12.4298 7.19211 12.4618 7.71956 13.0289 7.71956H13.0289C13.0761 7.71956 13.1268 7.71549 13.1797 7.70744C13.7077 7.62719 13.6912 7.14505 13.6832 6.9134C13.681 6.84816 13.6788 6.78644 13.6844 6.7454C13.6859 6.73506 13.6866 6.72468 13.6866 6.71429Z" fill="black"/>
<path d="M8.74907 1.27642C8.81243 1.28099 8.8724 1.28537 8.92234 1.29302C12.4348 1.83319 14.0502 3.49739 14.4979 7.03737C14.5055 7.09754 14.5066 7.17093 14.5079 7.24865C14.5124 7.52522 14.5216 8.10057 15.1394 8.1125L15.1586 8.1127C15.3524 8.1127 15.5066 8.05426 15.6168 7.93888C15.8092 7.73769 15.7957 7.43881 15.7849 7.19861C15.7823 7.13968 15.7797 7.08417 15.7804 7.03558C15.8251 3.41511 12.6911 0.132075 9.07389 0.00998758C9.05889 0.00949068 9.04458 0.0102857 9.03012 0.012323C9.02301 0.0133665 9.00984 0.0146584 8.98728 0.0146584C8.95121 0.0146584 8.90684 0.0115279 8.85978 0.00834783C8.80289 0.00447205 8.73839 0 8.673 0C8.09695 0 7.98743 0.409441 7.97342 0.653516C7.94112 1.21759 8.48681 1.25729 8.74907 1.27642Z" fill="black"/>
<path d="M14.3285 11.6125C14.2538 11.5555 14.1766 11.4965 14.1043 11.4382C13.7208 11.1296 13.3128 10.8451 12.9182 10.57C12.8364 10.513 12.7545 10.4559 12.6729 10.3986C12.1674 10.0436 11.713 9.87108 11.2837 9.87108C10.7055 9.87108 10.2013 10.1906 9.78523 10.8206C9.60088 11.0999 9.37723 11.2357 9.1016 11.2357C8.93862 11.2357 8.75342 11.1892 8.55124 11.0974C6.91979 10.3576 5.75482 9.22328 5.08863 7.72598C4.76659 7.00231 4.87099 6.52927 5.43775 6.14427C5.75959 5.92584 6.35864 5.51918 6.31621 4.74045C6.26816 3.85612 4.31695 1.1953 3.49484 0.893091C3.14677 0.765091 2.78105 0.763898 2.4059 0.89011C1.4608 1.20782 0.782593 1.76579 0.444407 2.50358C0.117599 3.21647 0.132357 4.05354 0.48709 4.9243C1.51258 7.44186 2.95437 9.63684 4.77256 11.4482C6.55223 13.2213 8.73961 14.6737 11.2739 15.7649C11.5023 15.8632 11.7419 15.9168 11.9169 15.9559C11.9765 15.9694 12.028 15.9808 12.0655 15.9911C12.0861 15.9967 12.1074 15.9997 12.1287 15.9999L12.1487 16C12.1488 16 12.1487 16 12.1488 16C13.3408 16 14.772 14.9108 15.2115 13.6691C15.5966 12.5818 14.8935 12.0443 14.3285 11.6125Z" fill="black"/>
<path d="M9.27653 4.15229C9.07245 4.15746 8.64776 4.16799 8.49874 4.60054C8.42902 4.80268 8.43737 4.97818 8.52358 5.12218C8.65009 5.33346 8.89248 5.39821 9.11295 5.43373C9.9125 5.56203 10.3231 6.00417 10.4053 6.82504C10.4434 7.2078 10.7012 7.47508 11.0321 7.47508H11.0322C11.0566 7.47508 11.0816 7.47364 11.1065 7.47061C11.5045 7.42325 11.6974 7.13083 11.68 6.60154C11.6864 6.04914 11.3973 5.42201 10.9056 4.92248C10.4122 4.42141 9.8175 4.13922 9.27653 4.15229Z" fill="black"/>
</svg>
